<svg xmlns="http://www.w3.org/2000/svg" viewBox="0 0 256 302" width="256" height="302">
  <path fill="#27346A" d="M217.168 23.507C203.234 7.625 178.046.816 145.823.816h-93.52A13.393 13.393 0 0 0 39.076 12.11L.136 259.077c-.774 4.87 2.997 9.28 7.933 9.28h57.736l14.5-91.971-.45 2.88c1.033-6.501 6.593-11.296 13.177-11.296h27.436c53.898 0 96.101-21.892 108.429-85.221.366-1.873.683-3.696.957-5.477 3.671-23.407-.025-39.34-12.686-53.765"/>
  <path fill="#27346A" d="M102.397 68.84a11.72 11.72 0 0 1 5.265-1.234h73.291c8.682 0 16.78.565 24.182 1.752a102 102 0 0 1 6.193 1.191 90 90 0 0 1 8.595 2.317c3.466 1.157 6.691 2.523 9.672 4.155 3.671-23.407-.025-39.34-12.686-53.765C203.234 7.625 178.046.816 145.823.816h-93.52A13.393 13.393 0 0 0 39.076 12.11L.136 259.077c-.774 4.87 2.997 9.28 7.933 9.28h57.736l14.5-91.971 21.41-135.696a11.72 11.72 0 0 1 6.682-7.85"/>
  <path fill="#2790C3" d="M229.143 80.989c-.274 1.781-.591 3.604-.957 5.477-12.328 63.329-54.531 85.221-108.429 85.221H92.32c-6.584 0-12.144 4.795-13.176 11.296L65.504 268.357l-3.872 24.55a7.05 7.05 0 0 0 6.952 8.146h48.673c5.768 0 10.668-4.196 11.574-9.88l.476-2.467 9.173-58.136.591-3.211c.898-5.684 5.805-9.88 11.573-9.88h7.288c47.147 0 84.064-19.154 94.852-74.55 4.508-23.15 2.176-42.483-9.739-56.083-3.607-4.104-8.089-7.499-13.327-10.265"/>
</svg>
